<svg width="41" height="41" viewBox="0 0 41 41" fill="none" xmlns="http://www.w3.org/2000/svg">
<circle cx="20.5" cy="20.5" r="20.5" transform="rotate(90 20.5 20.5)" fill="#F49625"/>
<path d="M15.8561 17.5175C15.3404 9.6246 27.2163 15.3105 26.5284 19.0632C25.8641 22.6834 23.6837 23.311 22.1721 25.5088C22.1721 25.5088 21.1189 28.7442 21.4779 30.0357C22.6585 34.2934 16.588 38.1438 15.0076 33.1655C15.0076 33.1655 14.2483 29.7856 17.2567 27.4743C18.4502 25.8956 16.2819 24.0304 15.856 17.5175H15.8561Z" fill="white"/>
<path d="M19.1629 9.76638C19.3516 11.1597 18.7064 12.4077 17.7221 12.5522C16.7391 12.6928 15.7873 11.6797 15.5992 10.2832C15.4098 8.8873 16.0544 7.64316 17.0374 7.49995C18.0237 7.35602 18.9748 8.36916 19.1629 9.76638Z" fill="white"/>
<path d="M22.86 11.1638C22.6885 12.0495 22.0038 12.6515 21.3293 12.5135C20.6529 12.373 20.2461 11.5453 20.4164 10.6583C20.5866 9.77124 21.2726 9.16932 21.9477 9.3086C22.6229 9.45117 23.0302 10.2801 22.8601 11.1639L22.86 11.1638Z" fill="white"/>
<path d="M25.613 12.7906C25.3516 13.5127 24.6931 13.9278 24.1416 13.712C23.5926 13.4981 23.3567 12.7424 23.6182 12.0184C23.8796 11.2964 24.5368 10.8839 25.0877 11.0977C25.6372 11.3136 25.8725 12.0699 25.613 12.7906Z" fill="white"/>
<path d="M27.7245 15.0194C27.3783 15.6009 26.7382 15.8431 26.2951 15.5593C25.8533 15.2769 25.7743 14.5786 26.121 13.9958C26.4666 13.4117 27.1067 13.1721 27.5491 13.4559C27.9916 13.741 28.0719 14.438 27.7245 15.0194Z" fill="white"/>
<path d="M28.833 17.3723C28.6144 17.7967 28.1745 17.9947 27.8506 17.8158C27.5261 17.6376 27.4419 17.1479 27.6606 16.7242C27.8787 16.2998 28.3185 16.1004 28.6424 16.278C28.9663 16.4595 29.0511 16.9466 28.833 17.3723Z" fill="white"/>
</svg>
