<svg width="40" height="41" viewBox="0 0 40 41" fill="none" xmlns="http://www.w3.org/2000/svg">
<ellipse cx="19.8824" cy="20.3447" rx="20.3447" ry="19.8823" transform="rotate(90 19.8824 20.3447)" fill="#5D9CDF"/>
<path d="M32.8475 21.6632C32.5357 20.2868 30.5783 13.725 31.4559 9.02283H22.258V14.6351C22.258 15.3318 21.9462 15.9891 21.3803 16.4272C21.2706 16.5171 11.1142 24.0171 7.44775 22.8654C5.61163 22.3429 4.99959 22.8879 4.86679 23.3429C4.7975 23.5845 4.8206 23.8204 4.88988 24.062C6.11974 26.7755 6.84726 28.6856 19.9195 27.708C20.8376 27.6013 22.87 27.1406 26.7848 27.8822C30.7631 27.7811 32.1315 27.0283 32.6858 25.8317C33.2285 24.5451 33.165 23.0564 32.8475 21.6632ZM28.9212 21.5059C27.57 22.8148 25.6069 22.5058 24.2096 21.725C23.9151 21.5957 23.8054 21.2474 23.9613 20.9834C24.0941 20.6969 24.4521 20.5901 24.7235 20.7418C26.1727 21.7643 27.7317 21.1351 28.0666 20.7868C29.1001 19.5564 28.5689 17.8711 28.0666 17.489C27.8183 17.298 27.8414 16.9216 28.0666 16.7025C28.2918 16.4834 28.6498 16.4834 28.875 16.7025C29.3484 17.1632 29.6833 17.7699 29.7699 18.4048C29.9201 20.0508 29.2849 21.1351 28.9212 21.5059Z" fill="white"/>
</svg>
