<?xml version="1.0" encoding="iso-8859-1"?>
<!-- Generator: Adobe Illustrator 19.0.0, SVG Export Plug-In . SVG Version: 6.00 Build 0)  -->
<svg version="1.1" id="Capa_1" xmlns="http://www.w3.org/2000/svg" xmlns:xlink="http://www.w3.org/1999/xlink" x="0px" y="0px"
	 viewBox="0 0 512.006 512.006" style="enable-background:new 0 0 512.006 512.006;" xml:space="preserve">
<g>
	<g>
		<path d="M449.221,421.128c-33.008-8.508-74.088-19.108-103.654-36c-46.083-24.938-88.543-56.057-126.2-92.491
			c-14.566-14.567-14.566-37.184-14.566-53.7c0-12.683,25.875-140.625,41.95-207.425c1.826-7.617,0.056-15.651-4.8-21.797
			c-4.856-6.146-12.263-9.725-20.096-9.711H35.471c-7.119,0.001-13.916,2.966-18.759,8.184c-4.843,5.218-7.295,12.217-6.766,19.316
			C14.65,90.511,25.6,242.22,25.6,290.136c-0.788,26.216-4.793,52.236-11.925,77.475C5.235,397.981,0.641,429.289,0,460.803
			c0,51.2,51.354,51.2,85.333,51.2c17.492-0.361,34.945-1.808,52.258-4.333c16.612-2.425,33.358-3.828,50.142-4.2
			c14.346,0,33.458,1.558,55.583,3.358c29.833,2.425,63.65,5.175,98.017,5.175c75.587,0,122.75-0.633,140.35-9.433
			c18.864-9.62,30.621-29.126,30.317-50.3C512,437.32,489.7,431.57,449.221,421.128z M133.175,79.761
			c0.35-5.496,0.686-10.797,1.008-15.987l0.125-2.024c0.309-5.022,0.595-9.883,0.858-14.581c0.047-0.837,0.092-1.67,0.136-2.497
			c0.254-4.679,0.483-9.222,0.667-13.536c0.017-0.408,0.029-0.792,0.046-1.196c0.167-4.047,0.294-7.913,0.381-11.599
			c0.009-0.405,0.033-0.87,0.042-1.271h50.57c-1.712,13.325-6.212,36.483-10.921,60.692C166.071,129.32,153.6,193.478,153.6,230.403
			c-0.576,12.922,1.409,25.831,5.842,37.983c1.768,4.183,2.683,8.676,2.692,13.217c0.32,10.906-0.346,21.819-1.99,32.606
			c-2.354-1.518-4.624-3.161-6.802-4.922l-0.064-0.032c-1.214-10.216-4.476-20.083-9.59-29.01c-1.072-2.144-2.185-4.388-3.299-6.777
			c-0.436-0.935-0.869-1.894-1.3-2.876c-0.278-0.633-0.557-1.257-0.833-1.916c-0.629-1.502-1.244-3.103-1.853-4.759
			c-0.211-0.578-0.425-1.143-0.633-1.743c-0.589-1.692-1.156-3.523-1.713-5.419c-0.243-0.833-0.486-1.666-0.719-2.541
			c-0.443-1.687-0.877-3.418-1.276-5.253l-0.002,0.001c-0.192-0.869-0.369-1.794-0.55-2.703c-0.319-1.655-0.631-3.328-0.918-5.106
			l-0.076-0.435c-0.118-0.735-0.24-1.453-0.351-2.213c-0.298-2.093-0.552-4.318-0.798-6.602l-0.159-1.336
			c-0.074-0.731-0.15-1.455-0.218-2.208c-0.205-2.4-0.365-4.934-0.51-7.506l-0.15-2.224c-0.032-0.672-0.053-1.377-0.081-2.064
			c-0.147-3.724-0.248-7.586-0.248-11.762C128,161.07,130.75,117.87,133.175,79.761z M162.133,375.47
			c-9.519,0.506-18.638,3.993-26.067,9.967c-3.699,2.797-7.818,4.991-12.204,6.5c-1.464-1.964-3.103-3.79-4.896-5.458
			c-0.504-0.48-1.031-0.932-1.561-1.391c-1.513-1.307-3.11-2.513-4.781-3.611c-0.467-0.307-0.898-0.644-1.379-0.937
			c-2.176-1.321-4.446-2.481-6.791-3.471c-0.582-0.247-1.192-0.444-1.786-0.673c-1.96-0.755-3.959-1.404-5.988-1.944
			c-0.732-0.195-1.452-0.397-2.197-0.567c-2.674-0.626-5.385-1.081-8.117-1.362c-0.223-0.022-0.452-0.014-0.676-0.033
			c-1.965-0.172-3.946-0.294-5.956-0.294c-0.722,0-1.457,0.067-2.184,0.089c-0.561,0.018-1.116,0.038-1.679,0.069
			c-2.547,0.124-5.085,0.386-7.604,0.784v-7.817c5.594-2.162,10.944-4.908,15.963-8.192c10.042,12.325,18.817,18.342,26.704,18.342
			c1.466-0.045,2.921-0.268,4.333-0.666c0.23-0.06,0.441-0.097,0.677-0.166c1.671-0.501,3.299-1.135,4.869-1.895
			c0.321-0.152,0.633-0.305,0.959-0.471c1.838-0.933,3.612-1.987,5.31-3.156c0.279-0.192,0.552-0.406,0.832-0.607
			c1.999-1.417,3.902-2.964,5.697-4.632l0.074-0.076c1.92-1.83,3.718-3.782,5.385-5.846c0.255-0.311,0.513-0.598,0.764-0.918
			c1.701-2.185,3.256-4.479,4.654-6.869c0.273-0.462,0.537-0.922,0.801-1.397c1.456-2.611,2.726-5.321,3.799-8.11
			c0.172-0.448,0.316-0.917,0.479-1.373c1.164-3.186,2.079-6.457,2.739-9.783l0.015-0.051l0.151,0.081
			c0.903,0.527,1.751,0.983,2.535,1.36c0.241,0.117,0.481,0.232,0.712,0.336c0.598,0.267,1.164,0.49,1.702,0.678
			c0.272,0.096,0.554,0.203,0.813,0.281c0.485,0.144,0.94,0.244,1.384,0.331c0.229,0.045,0.474,0.112,0.694,0.144
			c2.705,0.397,5.467-0.058,7.902-1.303c6.406,4.062,10.488,10.939,10.987,18.509C179.2,358.728,175.633,375.47,162.133,375.47z
			 M170.667,418.136c-0.041,1.911-0.282,3.812-0.717,5.673c-0.125,0.582-0.368,1.269-0.527,1.882
			c-0.415,1.591-0.867,3.217-1.5,4.996c-0.317,0.89-0.741,1.864-1.111,2.796c-0.643,1.621-1.309,3.259-2.105,4.991
			c-0.534,1.158-1.156,2.374-1.757,3.579c-1.077,2.157-2.139,4.308-3.42,6.573c-0.906,1.679-2.768,2.609-4.654,2.325
			c-3.614-0.567-7.174-1.431-10.646-2.583c-10.752-3.439-22.014-5.006-33.296-4.633c-13.167,0-23.45,10.975-28.971,16.875
			c-0.905,0.958-1.621,1.758-2.158,2.225c-5.172,2.343-11.169,1.968-16.009-1c-8.771-4.758-21.129-16.158-21.129-26.633
			c0-21.471,2.084-24.135,21.473-43.538c1.229-0.367,2.439-0.642,3.652-0.92c1.293-0.296,2.598-0.648,3.867-0.846
			c1.431-0.224,2.813-0.297,4.207-0.404c1.237-0.095,2.493-0.247,3.696-0.254c1.387-0.008,2.706,0.128,4.041,0.23
			c1.125,0.085,2.28,0.111,3.362,0.27c1.339,0.196,2.583,0.529,3.851,0.829c0.976,0.231,1.996,0.402,2.925,0.69
			c1.273,0.396,2.423,0.918,3.601,1.414c0.801,0.336,1.663,0.614,2.416,0.993c1.118,0.599,2.201,1.261,3.243,1.984
			c0.614,0.402,1.308,0.749,1.876,1.181c1.013,0.808,1.965,1.688,2.85,2.634c0.388,0.393,0.87,0.742,1.222,1.15
			c1.134,1.299,2.103,2.733,2.884,4.27c1.446,2.891,4.401,4.717,7.634,4.716c9.519-0.506,18.638-3.993,26.067-9.967
			c1.267-0.844,2.485-1.644,3.695-2.407c0.378-0.239,0.749-0.446,1.123-0.672c0.893-0.54,1.782-1.037,2.667-1.492
			c0.432-0.222,0.866-0.426,1.3-0.623c0.858-0.386,1.738-0.719,2.636-0.998c0.406-0.129,0.808-0.278,1.22-0.378
			c0.171-0.042,0.356-0.034,0.529-0.071c0.241,0.286,0.467,0.549,0.727,0.867l0.008,0.007l0.001,0.001
			c1.685,2.05,3.252,4.194,4.693,6.421l0.107,0.163c1.216,1.897,2.309,3.869,3.274,5.906c0.096,0.203,0.202,0.401,0.295,0.604
			c0.789,1.723,1.441,3.505,1.947,5.331c0.083,0.301,0.154,0.601,0.225,0.901C170.399,414.81,170.629,416.468,170.667,418.136z
			 M93.867,238.936V17.07h25.491c-0.009,0.436-0.025,0.895-0.035,1.336c-0.088,3.574-0.211,7.306-0.375,11.238
			c-0.016,0.395-0.028,0.765-0.045,1.165c-0.181,4.186-0.405,8.599-0.653,13.148c-0.05,0.915-0.098,1.822-0.15,2.751
			c-0.248,4.437-0.518,9.019-0.809,13.747c-0.078,1.263-0.158,2.551-0.237,3.833c-0.292,4.692-0.591,9.438-0.906,14.381
			c-2.446,38.375-5.212,81.859-5.212,126.134c0,4.461,0.108,8.599,0.266,12.587c0.015,0.379,0.009,0.822,0.026,1.196l0.056,0.853
			c0.185,3.959,0.44,7.698,0.765,11.218l0.012,0.171l0.037,0.319c1.198,17.425,5.658,34.471,13.148,50.25
			c1.059,2.247,2.108,4.395,3.119,6.432c3.214,5.766,5.626,11.944,7.17,18.362c0.034,0.169,0.089,0.323,0.122,0.494
			c0.327,1.915,0.538,3.849,0.631,5.79c0.069,1.102,0.248,2.067,0.248,3.263c0,1.826-0.083,3.588-0.24,5.288
			c-0.068,0.74-0.2,1.423-0.295,2.139c-0.123,0.93-0.219,1.884-0.385,2.774c-0.16,0.859-0.382,1.655-0.579,2.478
			c-0.164,0.684-0.297,1.398-0.484,2.058c-0.278,0.98-0.613,1.894-0.938,2.82c-0.155,0.442-0.285,0.915-0.451,1.345
			c-0.467,1.213-0.979,2.365-1.515,3.479c-0.048,0.1-0.088,0.213-0.137,0.312c-3.951,9.102-11.337,16.274-20.549,19.958
			c-0.068-0.01-0.182-0.058-0.266-0.081c-0.249-0.078-0.493-0.172-0.73-0.28c-4.886-3.036-9.126-7.006-12.476-11.682
			c-13.134-16.523-29.224-45.373-29.224-56.207c1.826-7.687,5.653-14.753,11.092-20.483
			C87.35,261.226,92.434,250.462,93.867,238.936z M474.05,487.303c-15.262,7.633-77.662,7.633-132.717,7.633
			c-33.671,0-67.121-2.725-96.633-5.125c-22.496-1.825-41.925-3.408-56.967-3.408c-17.492,0.361-34.945,1.808-52.258,4.333
			c-16.612,2.425-33.358,3.828-50.142,4.2c-39.971,0-68.267-2.45-68.267-34.133c0.674-30.17,5.109-60.137,13.204-89.208
			c7.483-26.536,11.646-53.898,12.396-81.458c0-48.492-10.983-200.708-15.704-263.908c-0.172-2.365,0.646-4.695,2.26-6.432
			c1.614-1.737,3.877-2.725,6.248-2.727H76.8v221.867c-1.826,7.687-5.653,14.753-11.092,20.483
			c-7.992,8.427-13.076,19.191-14.508,30.717c0,9.272,10.012,32.971,23.09,53.061c-4.393,3.114-9.33,5.377-14.556,6.672
			c-2.263-0.001-4.434,0.898-6.035,2.499c-1.6,1.6-2.499,3.771-2.499,6.035v22.071c-19.563,19.605-25.6,26.771-25.6,54.729
			c0,20.05,19.671,36,30.071,41.633c5.613,2.996,11.871,4.58,18.233,4.617c6.141,0.205,12.154-1.787,16.958-5.617
			c0.867-0.742,2.083-1.992,3.554-3.558c3.487-3.725,10.75-11.475,16.517-11.475c9.603-0.377,19.197,0.943,28.342,3.9
			c4.289,1.401,8.686,2.449,13.146,3.133c7.095,1.061,14.248-1.513,19.041-6.852c7.503,4.682,15.998,7.542,24.805,8.352
			c3.757-0.355,7.394-1.512,10.666-3.394c8.791,7.854,20.215,12.112,32.001,11.928c9.375-0.364,18.669-1.884,27.671-4.525
			c7.655-2.269,15.554-3.615,23.529-4.008c9.263,1.206,18.275,3.881,26.696,7.925c10.385,4.977,21.571,8.072,33.037,9.142
			c6.254,0.065,12.239-2.543,16.449-7.168c7.467,7.199,18.539,9.181,28.04,5.021c9.501-4.161,15.552-13.643,15.325-24.012
			c-0.227-10.369-6.688-19.577-16.362-23.318s-20.649-1.275-27.793,6.244c-2.782-3-6.203-5.335-10.01-6.833
			c-2.25-0.867-4.821-2.092-7.75-3.483c-13.107-6.721-27.205-11.299-41.76-13.56c0.895-6.032,1.294-12.127,1.194-18.224
			c0-14.303-24.546-28.786-46.878-32.879c-8.355-17.585-27.251-35.388-38.456-35.388c-4.38,0-16.386,0.013-29.339,1.299
			c-3.54-7.049-8.885-13.035-15.491-17.346c1.89-11.617,2.615-23.393,2.163-35.154c-0.004-6.479-1.249-12.897-3.667-18.908
			c-3.765-10.33-5.419-21.311-4.867-32.292c0-35.275,12.296-98.55,22.175-149.383c5.356-27.555,9.756-50.302,11.313-63.95h17.7
			c2.624-0.011,5.107,1.188,6.729,3.25c1.606,2.029,2.187,4.686,1.575,7.2c-14.383,59.767-42.425,195.25-42.425,211.417
			c0,18.4,0,46.2,19.567,65.766c38.721,37.517,82.393,69.562,129.8,95.242c31.554,18.033,73.862,28.942,107.858,37.708
			c19.958,5.15,44.588,11.5,49.95,16.075C494.674,467.908,486.659,480.81,474.05,487.303z M187.028,411.254
			c-0.134-0.717-0.339-1.401-0.509-2.108c-0.366-1.52-0.771-3.018-1.284-4.488c-0.289-0.831-0.599-1.626-0.925-2.434
			c-0.491-1.212-1.007-2.395-1.572-3.56c-0.463-0.96-0.915-1.89-1.41-2.804c-0.131-0.241-0.239-0.502-0.372-0.74
			c17.621-2.246,22.438-2.57,23.754-2.582c0.098,0.009,0.272,0.083,0.382,0.101c0.673,0.122,1.331,0.312,1.965,0.568
			c0.592,0.234,1.271,0.56,1.968,0.907c0.317,0.155,0.623,0.301,0.957,0.478c0.923,0.497,1.899,1.068,2.918,1.717l0.373,0.238
			c6.644,4.025,12.111,9.729,15.849,16.539l0.035,0.056c0.241,0.545,0.38,1.031,0.552,1.538c0.4,1.112,0.633,2.277,0.693,3.457
			c0,0.2-0.072,0.427-0.09,0.633c-0.009,0.054-0.049,0.096-0.056,0.15c-2.416,7.112-6.767,13.411-12.564,18.187l-0.248,0.232
			c-1.227,1.172-2.519,2.332-3.852,3.47l0,0c-0.166,0.142-0.33,0.291-0.495,0.432c-3.039,2.572-6.243,4.941-9.591,7.094
			c-0.196,0.126-0.294,0.346-0.478,0.486c-2.059,1.496-4.34,2.659-6.76,3.447c-5.781-0.899-11.32-2.963-16.279-6.067
			c0.164-0.35,0.271-0.664,0.43-1.01c0.875-1.916,1.71-3.866,2.49-5.854c0.309-0.787,0.592-1.557,0.87-2.325
			c0.593-1.633,1.133-3.269,1.619-4.908c0.249-0.847,0.468-1.674,0.676-2.495c0.335-1.313,0.608-2.608,0.847-3.902
			c0.126-0.691,0.278-1.399,0.372-2.069c0.275-1.822,0.423-3.662,0.442-5.504C187.711,415.825,187.475,413.522,187.028,411.254z
			 M288.905,418.104c-4.483-0.019-8.796-0.121-12.868-0.337c-0.971-0.052-1.842-0.15-2.789-0.213
			c-3.235-0.215-6.368-0.477-9.323-0.822c-1.317-0.154-2.55-0.346-3.81-0.526c-2.435-0.347-4.782-0.734-7.004-1.177
			c-1.208-0.241-2.39-0.493-3.535-0.762c-0.825-0.194-1.542-0.435-2.333-0.644l0.229-0.203c1.041-0.844,2.097-1.641,3.199-2.442
			c0.746-0.547,1.515-1.112,2.289-1.709c0.211-0.163,0.421-0.349,0.633-0.518c0.57-0.452,1.138-0.908,1.702-1.409
			c0.287-0.254,0.56-0.549,0.843-0.818c0.482-0.459,0.962-0.916,1.426-1.427c0.303-0.334,0.583-0.717,0.876-1.076
			c0.42-0.514,0.838-1.026,1.231-1.598c0.287-0.419,0.545-0.895,0.815-1.349c0.355-0.597,0.708-1.196,1.027-1.86
			c0.25-0.518,0.464-1.095,0.688-1.658c0.282-0.706,0.556-1.422,0.793-2.203c0.19-0.628,0.343-1.314,0.501-1.994
			c0.195-0.84,0.374-1.703,0.515-2.628c0.114-0.752,0.192-1.557,0.267-2.369c0.054-0.58,0.158-1.081,0.19-1.693
			c9.85,2.406,18.776,7.654,25.667,15.092C290.239,407.235,289.827,412.707,288.905,418.104z M292.85,435.336l1.979,0.125
			c0.142,0.009,0.279,0.009,0.421,0.009c0.103,0,0.196-0.042,0.299-0.046c15.695,1.138,30.985,5.515,44.906,12.854
			c3.375,1.6,6.346,2.992,8.938,3.992c3.192,1.247,5.577,3.971,6.391,7.3c0.765,2.751,0.119,5.703-1.725,7.883
			c-1.008,1.272-2.571,1.974-4.192,1.883c-9.263-1.206-18.275-3.881-26.696-7.925c-10.385-4.977-21.571-8.072-33.037-9.142
			c-9.375,0.364-18.669,1.884-27.671,4.525c-7.655,2.269-15.554,3.615-23.529,4.008c-6.014,0.203-11.942-1.477-16.956-4.806
			c2.017-1.625,3.999-3.355,5.94-5.164h0c0.261-0.24,0.509-0.491,0.769-0.736c1.407-1.339,2.77-2.712,4.089-4.12
			c1.26-1.323,2.424-2.683,3.598-4.081c0.692-0.835,1.4-1.664,2.044-2.511c0.9-1.172,1.711-2.346,2.509-3.55
			c0.602-0.907,1.128-1.814,1.659-2.724c0.492-0.85,1.118-1.675,1.543-2.533c0.51,0.127,1.104,0.211,1.625,0.333
			c1.231,0.287,2.549,0.529,3.837,0.786c2.522,0.506,5.134,0.964,7.872,1.359c1.454,0.209,2.927,0.407,4.442,0.585
			c2.951,0.347,6.039,0.619,9.216,0.846c1.426,0.102,2.801,0.23,4.272,0.308c4.706,0.248,9.58,0.407,14.739,0.407
			C291.079,435.203,291.967,435.27,292.85,435.336z M240.588,397.203c-0.275,0.207-0.557,0.407-0.843,0.621
			c-6.919-9.089-16.132-16.174-26.694-20.527c-0.171-0.066-0.33-0.11-0.499-0.173c-1.084-0.396-2.188-0.732-3.308-1.008
			c-0.349-0.086-0.694-0.171-1.033-0.24c-1.121-0.244-2.263-0.381-3.41-0.407c-0.443,0-1.214,0.007-2.881,0.126l-0.3,0.022
			l-0.789,0.062c-2.398,0.194-6.055,0.565-11.741,1.237c0.061-0.099,0.101-0.215,0.162-0.315c0.989-1.648,1.869-3.359,2.633-5.122
			c0.145-0.332,0.285-0.665,0.423-1.002c0.751-1.823,1.394-3.688,1.925-5.586c0.081-0.291,0.144-0.585,0.22-0.878
			c0.529-2.005,0.944-4.038,1.244-6.09l0.021-0.118c0.28-2.092,0.445-4.198,0.494-6.308c0.006-0.204,0.044-0.406,0.048-0.61
			c10.942-0.983,20.983-1.017,25.188-1.017c10.97,6.728,19.622,16.648,24.796,28.43c0.045,0.153,0.046,0.31,0.1,0.461
			c0.212,0.631,0.391,1.273,0.539,1.922c0.316,1.082,0.512,2.195,0.586,3.319C248.37,389.444,245.565,394.827,240.588,397.203z
			 M375.467,460.803c0-4.713,3.82-8.533,8.533-8.533s8.533,3.821,8.533,8.533s-3.82,8.533-8.533,8.533
			C379.289,469.332,375.471,465.514,375.467,460.803z"/>
	</g>
</g>
<g>
</g>
<g>
</g>
<g>
</g>
<g>
</g>
<g>
</g>
<g>
</g>
<g>
</g>
<g>
</g>
<g>
</g>
<g>
</g>
<g>
</g>
<g>
</g>
<g>
</g>
<g>
</g>
<g>
</g>
</svg>
