<svg width="41" height="41" viewBox="0 0 41 41" fill="none" xmlns="http://www.w3.org/2000/svg">
<circle cx="20.5" cy="20.5" r="20.5" transform="rotate(90 20.5 20.5)" fill="#335C81"/>
<path d="M14.8559 17.5175C14.3402 9.6246 26.216 15.3105 25.5281 19.0632C24.8638 22.6834 22.6834 23.311 21.1719 25.5088C21.1719 25.5088 20.1187 28.7442 20.4776 30.0357C21.6583 34.2934 15.5878 38.1438 14.0073 33.1655C14.0073 33.1655 13.248 29.7856 16.2565 27.4743C17.4499 25.8956 15.2817 24.0304 14.8558 17.5175H14.8559Z" fill="white"/>
<path d="M18.1632 8.28005C18.3519 9.67333 17.7067 10.9213 16.7224 11.0659C15.7393 11.2065 14.7875 10.1934 14.5994 8.79683C14.41 7.40097 15.0546 6.15683 16.0377 6.01362C17.0239 5.86969 17.9751 6.88283 18.1632 8.28005Z" fill="white"/>
<path d="M21.8603 9.67749C21.6887 10.5632 21.0041 11.1651 20.3296 11.0272C19.6532 10.8866 19.2464 10.059 19.4167 9.17198C19.5869 8.28492 20.2728 7.68299 20.948 7.82227C21.6231 7.96484 22.0305 8.79377 21.8603 9.67755L21.8603 9.67749Z" fill="white"/>
<path d="M24.6132 11.3043C24.3518 12.0264 23.6933 12.4415 23.1418 12.2257C22.5929 12.0118 22.357 11.2561 22.6184 10.5321C22.8798 9.81003 23.5371 9.39753 24.0879 9.61138C24.6375 9.82723 24.8727 10.5836 24.6132 11.3043V11.3043Z" fill="white"/>
<path d="M26.725 13.5331C26.3788 14.1146 25.7387 14.3568 25.2956 14.073C24.8538 13.7905 24.7748 13.0922 25.1215 12.5095C25.4671 11.9253 26.1072 11.6858 26.5496 11.9696C26.992 12.2547 27.0724 12.9517 26.725 13.5331Z" fill="white"/>
<path d="M27.833 15.886C27.6144 16.3103 27.1745 16.5083 26.8506 16.3295C26.5261 16.1513 26.4419 15.6616 26.6606 15.2378C26.8787 14.8135 27.3185 14.6141 27.6424 14.7917C27.9663 14.9732 28.0511 15.4603 27.833 15.886V15.886Z" fill="white"/>
</svg>
