<svg width="41" height="41" viewBox="0 0 41 41" fill="none" xmlns="http://www.w3.org/2000/svg">
<circle cx="20.5" cy="20.5" r="20.5" transform="rotate(90 20.5 20.5)" fill="#5D9CDF"/>
<path d="M30.3477 28.4066C28.8526 28.0145 26.9918 27.526 25.6526 26.7476C23.5653 25.5984 21.642 24.1643 19.9363 22.4854C19.2766 21.8141 19.2766 20.7718 19.2766 20.0107C19.2766 19.4262 20.4486 13.5303 21.1767 10.452C21.2594 10.101 21.1793 9.73074 20.9593 9.44751C20.7393 9.16429 20.4038 8.99936 20.049 9H11.6067C11.2842 9.00005 10.9763 9.13668 10.757 9.37714C10.5376 9.6176 10.4265 9.94014 10.4505 10.2673C10.6636 13.1708 11.1596 20.162 11.1596 22.3701C11.1239 23.5782 10.9425 24.7773 10.6194 25.9404C10.2371 27.3399 10.029 28.7827 10 30.2349C10 32.5944 12.3261 32.5944 13.8652 32.5944C14.6575 32.5777 15.4481 32.511 16.2323 32.3947C16.9847 32.2829 17.7432 32.2183 18.5035 32.2011C19.1533 32.2011 20.019 32.2729 21.0211 32.3559C22.3724 32.4676 23.9042 32.5944 25.4609 32.5944C28.8846 32.5944 31.0209 32.5652 31.8181 32.1597C32.6725 31.7163 33.2051 30.8175 33.1913 29.8417C33.1913 29.1528 32.1812 28.8878 30.3477 28.4066ZM16.0322 12.6754C16.0481 12.4222 16.0633 12.1779 16.0779 11.9387L16.0836 11.8454C16.0975 11.614 16.1105 11.39 16.1224 11.1735C16.1245 11.1349 16.1266 11.0965 16.1286 11.0584C16.1401 10.8428 16.1505 10.6335 16.1588 10.4347C16.1596 10.4159 16.1601 10.3982 16.1609 10.3795C16.1684 10.193 16.1742 10.0149 16.1781 9.84502C16.1785 9.82636 16.1796 9.80493 16.18 9.78645H18.4706C18.3931 10.4005 18.1893 11.4677 17.976 12.5833C17.5223 14.9592 16.9574 17.9158 16.9574 19.6174C16.9313 20.2129 17.0212 20.8078 17.222 21.3678C17.3021 21.5606 17.3435 21.7676 17.3439 21.9769C17.3584 22.4795 17.3283 22.9824 17.2538 23.4795C17.1472 23.4095 17.0444 23.3338 16.9457 23.2526L16.9428 23.2512C16.8878 22.7804 16.7401 22.3257 16.5084 21.9143C16.4599 21.8155 16.4095 21.7121 16.359 21.602C16.3392 21.5589 16.3196 21.5147 16.3001 21.4695C16.2875 21.4403 16.2749 21.4115 16.2624 21.3812C16.2339 21.3119 16.206 21.2382 16.1784 21.1619C16.1689 21.1352 16.1592 21.1092 16.1498 21.0815C16.1231 21.0036 16.0974 20.9192 16.0722 20.8318C16.0612 20.7934 16.0502 20.755 16.0396 20.7147C16.0196 20.637 15.9999 20.5572 15.9818 20.4726L15.9817 20.4727C15.973 20.4326 15.965 20.39 15.9568 20.3481C15.9424 20.2719 15.9282 20.1948 15.9152 20.1128L15.9118 20.0928C15.9064 20.0589 15.9009 20.0258 15.8959 19.9908C15.8824 19.8944 15.8709 19.7918 15.8597 19.6866L15.8525 19.625C15.8492 19.5913 15.8458 19.5579 15.8427 19.5232C15.8334 19.4126 15.8261 19.2959 15.8196 19.1773L15.8128 19.0749C15.8113 19.0439 15.8104 19.0114 15.8091 18.9797C15.8024 18.8081 15.7979 18.6302 15.7979 18.4377C15.7978 16.4224 15.9224 14.4316 16.0322 12.6754ZM17.3439 26.3025C16.9127 26.3259 16.4997 26.4865 16.1632 26.7618C15.9956 26.8907 15.8091 26.9918 15.6104 27.0614C15.5441 26.9709 15.4698 26.8867 15.3886 26.8099C15.3658 26.7877 15.3419 26.7669 15.3179 26.7458C15.2494 26.6855 15.1771 26.63 15.1014 26.5794C15.0802 26.5652 15.0607 26.5497 15.0389 26.5362C14.9403 26.4753 14.8375 26.4218 14.7313 26.3762C14.7049 26.3648 14.6773 26.3558 14.6504 26.3452C14.5616 26.3104 14.4711 26.2805 14.3792 26.2556C14.346 26.2466 14.3134 26.2373 14.2797 26.2295C14.1585 26.2006 14.0357 26.1797 13.912 26.1667C13.9019 26.1657 13.8915 26.1661 13.8814 26.1652C13.7924 26.1573 13.7026 26.1517 13.6116 26.1517C13.5789 26.1517 13.5456 26.1547 13.5127 26.1558C13.4873 26.1566 13.4621 26.1575 13.4366 26.1589C13.3212 26.1647 13.2063 26.1767 13.0922 26.1951V25.8348C13.3456 25.7352 13.5879 25.6087 13.8152 25.4573C14.2701 26.0253 14.6676 26.3026 15.0248 26.3026C15.0912 26.3005 15.1571 26.2902 15.2211 26.2719C15.2315 26.2691 15.2411 26.2674 15.2517 26.2642C15.3274 26.2412 15.4012 26.2119 15.4723 26.1769C15.4868 26.1699 15.501 26.1629 15.5157 26.1552C15.599 26.1122 15.6793 26.0636 15.7562 26.0098C15.7689 26.0009 15.7813 25.9911 15.7939 25.9818C15.8845 25.9165 15.9707 25.8452 16.052 25.7683L16.0553 25.7648C16.1423 25.6805 16.2237 25.5906 16.2993 25.4954C16.3108 25.4811 16.3225 25.4679 16.3339 25.4531C16.4109 25.3524 16.4813 25.2467 16.5447 25.1366C16.557 25.1153 16.569 25.0941 16.5809 25.0722C16.6469 24.9519 16.7044 24.827 16.753 24.6985C16.7608 24.6778 16.7673 24.6562 16.7747 24.6352C16.8274 24.4884 16.8689 24.3377 16.8988 24.1844L16.8995 24.182L16.9063 24.1858C16.9472 24.2101 16.9856 24.2311 17.0211 24.2484C17.032 24.2538 17.0429 24.2591 17.0534 24.2639C17.0805 24.2762 17.1061 24.2865 17.1305 24.2952C17.1428 24.2996 17.1556 24.3045 17.1673 24.3081C17.1893 24.3148 17.2099 24.3194 17.23 24.3234C17.2404 24.3254 17.2515 24.3285 17.2614 24.33C17.3839 24.3483 17.509 24.3273 17.6193 24.27C17.9095 24.4571 18.0944 24.7741 18.117 25.1229C18.117 25.531 17.9554 26.3025 17.3439 26.3025ZM17.7305 28.2687C17.7286 28.3568 17.7177 28.4444 17.698 28.5301C17.6923 28.557 17.6813 28.5886 17.6741 28.6169C17.6553 28.6902 17.6348 28.7651 17.6062 28.8471C17.5918 28.8881 17.5726 28.933 17.5558 28.9759C17.5267 29.0506 17.4965 29.1261 17.4605 29.2059C17.4363 29.2593 17.4081 29.3153 17.3809 29.3709C17.3321 29.4703 17.284 29.5694 17.226 29.6738C17.185 29.7511 17.1006 29.794 17.0152 29.7809C16.8515 29.7548 16.6902 29.715 16.533 29.6619C16.046 29.5034 15.5358 29.4312 15.0248 29.4484C14.4284 29.4484 13.9626 29.9541 13.7126 30.226C13.6716 30.2702 13.6391 30.307 13.6148 30.3286C13.3805 30.4365 13.1089 30.4193 12.8897 30.2825C12.4924 30.0632 11.9326 29.5379 11.9326 29.0552C11.9326 28.0657 12.027 27.9429 12.9053 27.0488C12.9609 27.0319 13.0157 27.0192 13.0707 27.0064C13.1292 26.9928 13.1884 26.9765 13.2458 26.9674C13.3107 26.9571 13.3732 26.9537 13.4364 26.9488C13.4924 26.9444 13.5493 26.9374 13.6038 26.9371C13.6666 26.9367 13.7264 26.943 13.7868 26.9477C13.8378 26.9516 13.8901 26.9528 13.9391 26.9601C13.9998 26.9692 14.0561 26.9845 14.1136 26.9983C14.1578 27.009 14.204 27.0169 14.246 27.0301C14.3037 27.0484 14.3558 27.0724 14.4092 27.0953C14.4454 27.1108 14.4845 27.1236 14.5186 27.1411C14.5692 27.1687 14.6183 27.1992 14.6655 27.2325C14.6933 27.251 14.7247 27.267 14.7505 27.2869C14.7963 27.3241 14.8395 27.3647 14.8796 27.4083C14.8971 27.4264 14.919 27.4425 14.9349 27.4613C14.9863 27.5211 15.0302 27.5872 15.0655 27.6581C15.131 27.7913 15.2649 27.8754 15.4113 27.8754C15.8425 27.8521 16.2555 27.6914 16.592 27.4161C16.6494 27.3772 16.7046 27.3403 16.7594 27.3052C16.7765 27.2941 16.7933 27.2846 16.8103 27.2742C16.8507 27.2493 16.891 27.2264 16.9311 27.2054C16.9506 27.1952 16.9703 27.1858 16.99 27.1767C17.0288 27.1589 17.0687 27.1436 17.1094 27.1307C17.1278 27.1248 17.146 27.1179 17.1646 27.1133C17.1724 27.1114 17.1807 27.1117 17.1886 27.11C17.1995 27.1232 17.2097 27.1353 17.2215 27.15L17.2219 27.1503L17.2219 27.1504C17.2982 27.2448 17.3692 27.3436 17.4345 27.4463L17.4393 27.4538C17.4944 27.5412 17.5439 27.6321 17.5876 27.7259C17.592 27.7353 17.5968 27.7444 17.601 27.7538C17.6367 27.8332 17.6663 27.9153 17.6892 27.9994C17.6929 28.0133 17.6962 28.0271 17.6994 28.041C17.7183 28.1154 17.7287 28.1918 17.7305 28.2687ZM14.2518 20.0107V9.78645H15.4064C15.406 9.80654 15.4053 9.8277 15.4048 9.84802C15.4008 10.0127 15.3952 10.1847 15.3878 10.3659C15.3871 10.3841 15.3865 10.4012 15.3858 10.4196C15.3776 10.6125 15.3674 10.8158 15.3562 11.0255C15.3539 11.0676 15.3518 11.1094 15.3494 11.1523C15.3382 11.3567 15.3259 11.5679 15.3128 11.7858C15.3092 11.844 15.3056 11.9033 15.302 11.9624C15.2888 12.1786 15.2753 12.3973 15.261 12.6251C15.1502 14.3935 15.0249 16.3974 15.0249 18.4377C15.0249 18.6433 15.0298 18.834 15.037 19.0178C15.0376 19.0352 15.0374 19.0556 15.0381 19.0729L15.0407 19.1122C15.049 19.2946 15.0606 19.4669 15.0753 19.6291L15.0759 19.637L15.0775 19.6517C15.1318 20.4547 15.3338 21.2402 15.6731 21.9674C15.7211 22.0709 15.7686 22.1699 15.8144 22.2638C15.9599 22.5295 16.0692 22.8142 16.1391 23.11C16.1407 23.1178 16.1432 23.1248 16.1447 23.1327C16.1595 23.221 16.169 23.3101 16.1732 23.3995C16.1764 23.4503 16.1845 23.4948 16.1845 23.5499C16.1845 23.6341 16.1807 23.7153 16.1736 23.7936C16.1705 23.8277 16.1645 23.8592 16.1602 23.8922C16.1547 23.935 16.1503 23.979 16.1428 24.02C16.1356 24.0596 16.1255 24.0963 16.1166 24.1342C16.1091 24.1657 16.1031 24.1986 16.0947 24.229C16.0821 24.2742 16.0669 24.3163 16.0522 24.359C16.0451 24.3794 16.0393 24.4012 16.0317 24.421C16.0106 24.4769 15.9874 24.53 15.9631 24.5813C15.9609 24.5859 15.9591 24.5911 15.9569 24.5957C15.7779 25.0151 15.4434 25.3456 15.0261 25.5154C15.023 25.5149 15.0179 25.5127 15.0141 25.5117C15.0028 25.5081 14.9917 25.5037 14.981 25.4988C14.7597 25.3589 14.5676 25.1759 14.4159 24.9604C13.821 24.199 13.0922 22.8695 13.0922 22.3702C13.1749 22.016 13.3482 21.6904 13.5946 21.4263C13.9566 21.0378 14.1868 20.5418 14.2518 20.0107ZM31.4723 31.4561C30.781 31.8079 27.9546 31.8079 25.4609 31.8079C23.9357 31.8079 22.4206 31.6823 21.0838 31.5717C20.0648 31.4876 19.1848 31.4146 18.5035 31.4146C17.7112 31.4313 16.9206 31.498 16.1364 31.6143C15.384 31.7261 14.6254 31.7907 13.8652 31.8079C12.0547 31.8079 10.773 31.695 10.773 30.2349C10.8035 28.8446 11.0044 27.4636 11.3711 26.124C11.71 24.9011 11.8986 23.6402 11.9326 22.3701C11.9326 20.1355 11.4351 13.121 11.2213 10.2085C11.2135 10.0995 11.2505 9.99217 11.3236 9.91212C11.3967 9.83207 11.4992 9.78654 11.6066 9.78645H13.4787V20.0107C13.396 20.3649 13.2226 20.6906 12.9763 20.9546C12.6143 21.343 12.384 21.839 12.3191 22.3701C12.3191 22.7974 12.7726 23.8895 13.365 24.8154C13.166 24.9589 12.9424 25.0631 12.7057 25.1228C12.6032 25.1228 12.5048 25.1642 12.4323 25.238C12.3599 25.3117 12.3191 25.4118 12.3191 25.5161V26.5332C11.433 27.4366 11.1596 27.7669 11.1596 29.0552C11.1596 29.9792 12.0506 30.7142 12.5216 30.9738C12.7759 31.1119 13.0594 31.1849 13.3475 31.1866C13.6257 31.196 13.898 31.1042 14.1156 30.9277C14.1549 30.8935 14.21 30.8359 14.2766 30.7638C14.4346 30.5921 14.7636 30.235 15.0248 30.235C15.4597 30.2176 15.8943 30.2784 16.3085 30.4147C16.5028 30.4793 16.702 30.5275 16.904 30.5591C17.2254 30.608 17.5494 30.4893 17.7665 30.2433C18.1063 30.4591 18.4911 30.5909 18.89 30.6282C19.0602 30.6118 19.2249 30.5585 19.3731 30.4718C19.7713 30.8337 20.2888 31.0299 20.8226 31.0215C21.2473 31.0047 21.6683 30.9346 22.076 30.8129C22.4228 30.7084 22.7805 30.6463 23.1418 30.6282C23.5613 30.6838 23.9696 30.8071 24.351 30.9934C24.8214 31.2228 25.3281 31.3654 25.8474 31.4147C26.1307 31.4177 26.4018 31.2975 26.5925 31.0844C26.9307 31.4162 27.4322 31.5075 27.8626 31.3158C28.2929 31.124 28.567 30.6871 28.5567 30.2093C28.5464 29.7314 28.2538 29.3071 27.8156 29.1347C27.3774 28.9623 26.8803 29.0759 26.5567 29.4224C26.4307 29.2842 26.2757 29.1766 26.1033 29.1075C26.0014 29.0676 25.8849 29.0111 25.7522 28.947C25.1586 28.6373 24.52 28.4264 23.8607 28.3222C23.9012 28.0442 23.9193 27.7633 23.9148 27.4823C23.9148 26.8232 22.803 26.1558 21.7914 25.9672C21.413 25.1568 20.5571 24.3364 20.0495 24.3364C19.8511 24.3364 19.3073 24.337 18.7206 24.3963C18.5603 24.0714 18.3182 23.7956 18.0189 23.5969C18.1045 23.0616 18.1374 22.5189 18.1169 21.9769C18.1167 21.6784 18.0603 21.3826 17.9508 21.1056C17.7803 20.6296 17.7054 20.1235 17.7304 19.6175C17.7304 17.9919 18.2873 15.076 18.7348 12.7335C18.9774 11.4637 19.1767 10.4154 19.2472 9.7865H20.049C20.1678 9.78599 20.2803 9.84124 20.3537 9.93627C20.4265 10.0298 20.4528 10.1522 20.4251 10.2681C19.7736 13.0223 18.5034 19.2657 18.5034 20.0108C18.5034 20.8587 18.5034 22.1398 19.3897 23.0414C21.1436 24.7703 23.1218 26.2471 25.2691 27.4305C26.6983 28.2615 28.6147 28.7642 30.1546 29.1681C31.0586 29.4055 32.1742 29.6981 32.4171 29.9089C32.4065 30.5623 32.0435 31.1569 31.4723 31.4561ZM18.4715 27.9516C18.4655 27.9185 18.4562 27.887 18.4485 27.8544C18.4319 27.7844 18.4136 27.7153 18.3903 27.6476C18.3772 27.6093 18.3632 27.5727 18.3484 27.5354C18.3262 27.4796 18.3028 27.4251 18.2772 27.3714C18.2562 27.3271 18.2358 27.2843 18.2133 27.2422C18.2074 27.2311 18.2025 27.219 18.1965 27.2081C18.9947 27.1046 19.2128 27.0896 19.2724 27.0891C19.2769 27.0895 19.2848 27.0929 19.2898 27.0937C19.3202 27.0994 19.35 27.1081 19.3788 27.1199C19.4056 27.1307 19.4363 27.1457 19.4679 27.1617C19.4823 27.1688 19.4961 27.1756 19.5112 27.1837C19.5531 27.2066 19.5973 27.2329 19.6434 27.2629L19.6603 27.2738C19.9613 27.4593 20.2089 27.7222 20.3782 28.036L20.3798 28.0386C20.3907 28.0637 20.397 28.0861 20.4048 28.1094C20.4229 28.1607 20.4335 28.2144 20.4362 28.2688C20.4362 28.278 20.4329 28.2884 20.4321 28.2979C20.4317 28.3004 20.4299 28.3023 20.4296 28.3048C20.3201 28.6326 20.1231 28.9228 19.8605 29.1429L19.8492 29.1536C19.7937 29.2076 19.7351 29.2611 19.6748 29.3135C19.6672 29.3201 19.6598 29.327 19.6523 29.3334C19.5147 29.452 19.3696 29.5611 19.2179 29.6604C19.209 29.6662 19.2046 29.6763 19.1963 29.6828C19.103 29.7517 18.9997 29.8053 18.8901 29.8416C18.6282 29.8002 18.3773 29.7051 18.1527 29.562C18.1601 29.5459 18.165 29.5314 18.1722 29.5155C18.2118 29.4272 18.2496 29.3373 18.285 29.2457C18.299 29.2094 18.3118 29.174 18.3244 29.1386C18.3512 29.0633 18.3757 28.9879 18.3977 28.9124C18.409 28.8734 18.4189 28.8352 18.4283 28.7974C18.4435 28.7369 18.4559 28.6772 18.4667 28.6176C18.4724 28.5858 18.4793 28.5531 18.4835 28.5223C18.496 28.4383 18.5027 28.3535 18.5036 28.2686C18.5025 28.1622 18.4918 28.0561 18.4715 27.9516ZM23.0861 28.2672C22.883 28.2664 22.6877 28.2617 22.5032 28.2517C22.4593 28.2493 22.4198 28.2448 22.3769 28.2419C22.2304 28.232 22.0885 28.2199 21.9546 28.204C21.895 28.1969 21.8391 28.1881 21.782 28.1798C21.6718 28.1638 21.5654 28.1459 21.4648 28.1255C21.4101 28.1144 21.3565 28.1028 21.3047 28.0904C21.2673 28.0815 21.2348 28.0704 21.199 28.0607L21.2094 28.0514C21.2565 28.0125 21.3044 27.9758 21.3543 27.9388C21.3881 27.9136 21.4229 27.8876 21.458 27.8601C21.4675 27.8526 21.477 27.844 21.4866 27.8362C21.5124 27.8154 21.5382 27.7944 21.5637 27.7713C21.5767 27.7596 21.5891 27.746 21.6019 27.7336C21.6237 27.7124 21.6455 27.6914 21.6665 27.6678C21.6802 27.6524 21.6929 27.6348 21.7062 27.6182C21.7252 27.5946 21.7441 27.571 21.7619 27.5446C21.7749 27.5253 21.7866 27.5034 21.7989 27.4824C21.8149 27.4549 21.8309 27.4273 21.8454 27.3967C21.8567 27.3729 21.8664 27.3463 21.8765 27.3203C21.8893 27.2878 21.9017 27.2548 21.9125 27.2188C21.9211 27.1899 21.928 27.1582 21.9351 27.1269C21.944 27.0882 21.9521 27.0484 21.9585 27.0058C21.9636 26.9712 21.9672 26.9341 21.9706 26.8966C21.973 26.8699 21.9777 26.8468 21.9792 26.8186C22.4253 26.9295 22.8296 27.1713 23.1418 27.5141C23.1465 27.7664 23.1279 28.0185 23.0861 28.2672ZM23.2648 29.0613L23.3544 29.0671C23.3609 29.0675 23.3671 29.0675 23.3735 29.0675C23.3782 29.0675 23.3824 29.0656 23.3871 29.0654C24.098 29.1178 24.7905 29.3195 25.4211 29.6577C25.574 29.7315 25.7085 29.7956 25.8259 29.8417C25.9705 29.8992 26.0786 30.0247 26.1154 30.1781C26.1501 30.3049 26.1208 30.4409 26.0373 30.5414C25.9916 30.6 25.9208 30.6323 25.8474 30.6281C25.4278 30.5726 25.0196 30.4493 24.6382 30.2629C24.1678 30.0336 23.6611 29.891 23.1418 29.8417C22.7171 29.8584 22.2962 29.9285 21.8884 30.0502C21.5417 30.1547 21.1839 30.2168 20.8226 30.2349C20.5502 30.2442 20.2817 30.1668 20.0546 30.0134C20.146 29.9385 20.2357 29.8588 20.3237 29.7754C20.3355 29.7644 20.3467 29.7528 20.3585 29.7415C20.4222 29.6798 20.484 29.6165 20.5437 29.5517C20.6008 29.4907 20.6535 29.428 20.7067 29.3636C20.738 29.3251 20.7701 29.2869 20.7993 29.2479C20.84 29.1939 20.8768 29.1398 20.9129 29.0843C20.9402 29.0425 20.964 29.0007 20.9881 28.9587C21.0103 28.9196 21.0387 28.8816 21.058 28.842C21.0811 28.8479 21.108 28.8517 21.1316 28.8574C21.1873 28.8706 21.247 28.8817 21.3054 28.8936C21.4196 28.9169 21.5379 28.938 21.6619 28.9562C21.7278 28.9658 21.7945 28.975 21.8631 28.9832C21.9968 28.9992 22.1367 29.0117 22.2806 29.0222C22.3452 29.0269 22.4074 29.0328 22.4741 29.0364C22.6872 29.0478 22.908 29.0551 23.1417 29.0551C23.1846 29.0552 23.2248 29.0583 23.2648 29.0613ZM20.8976 27.3041C20.8851 27.3136 20.8723 27.3228 20.8594 27.3327C20.546 26.9138 20.1287 26.5873 19.6503 26.3867C19.6425 26.3837 19.6353 26.3817 19.6277 26.3788C19.5786 26.3605 19.5286 26.345 19.4778 26.3323C19.462 26.3283 19.4464 26.3244 19.431 26.3212C19.3803 26.31 19.3285 26.3037 19.2766 26.3025C19.2565 26.3025 19.2216 26.3028 19.1461 26.3083L19.1325 26.3093L19.0967 26.3122C18.9881 26.3211 18.8225 26.3382 18.5649 26.3692C18.5677 26.3646 18.5695 26.3593 18.5723 26.3547C18.6171 26.2787 18.6569 26.1999 18.6915 26.1186C18.6981 26.1033 18.7044 26.088 18.7107 26.0724C18.7447 25.9884 18.7738 25.9025 18.7979 25.815C18.8016 25.8016 18.8044 25.7881 18.8079 25.7746C18.8318 25.6822 18.8506 25.5885 18.8642 25.4939L18.8652 25.4885C18.8778 25.3921 18.8853 25.295 18.8875 25.1978C18.8878 25.1884 18.8895 25.1791 18.8897 25.1697C19.3853 25.1244 19.8401 25.1228 20.0306 25.1228C20.5275 25.4329 20.9194 25.89 21.1538 26.4329C21.1558 26.44 21.1558 26.4472 21.1583 26.4542C21.1679 26.4833 21.176 26.5129 21.1827 26.5428C21.197 26.5926 21.2059 26.6439 21.2092 26.6957C21.2501 26.9465 21.123 27.1946 20.8976 27.3041ZM27.007 30.2349C27.007 30.0177 27.18 29.8417 27.3935 29.8417C27.607 29.8417 27.78 30.0178 27.78 30.2349C27.78 30.4521 27.607 30.6281 27.3935 30.6281C27.1801 30.628 27.0072 30.452 27.007 30.2349Z" fill="white"/>
</svg>
